<mxfile host="app.diagrams.net" agent="Mozilla/5.0 (Windows NT 10.0; Win64; x64) AppleWebKit/537.36 (KHTML, like Gecko) Chrome/134.0.0.0 Safari/537.36" version="26.1.1">
  <diagram name="Page-1" id="CIPakMB1GzST_sqyx0el">
    <mxGraphModel dx="880" dy="466" grid="1" gridSize="10" guides="1" tooltips="1" connect="1" arrows="1" fold="1" page="1" pageScale="1" pageWidth="850" pageHeight="1100" math="0" shadow="0">
      <root>
        <mxCell id="0" />
        <mxCell id="1" parent="0" />
        <mxCell id="jYyRJb0wWEmul5kKWIG7-2" value="" style="rounded=0;whiteSpace=wrap;html=1;" vertex="1" parent="1">
          <mxGeometry x="170" y="140" width="480" height="140" as="geometry" />
        </mxCell>
        <mxCell id="jYyRJb0wWEmul5kKWIG7-3" value="Status of Request for Add Product" style="text;html=1;align=center;verticalAlign=middle;resizable=0;points=[];autosize=1;strokeColor=none;fillColor=none;" vertex="1" parent="1">
          <mxGeometry x="310" y="100" width="200" height="30" as="geometry" />
        </mxCell>
        <mxCell id="jYyRJb0wWEmul5kKWIG7-6" value="request_id" style="rounded=1;whiteSpace=wrap;html=1;" vertex="1" parent="1">
          <mxGeometry x="185" y="150" width="70" height="20" as="geometry" />
        </mxCell>
        <mxCell id="jYyRJb0wWEmul5kKWIG7-7" value="Quantity" style="rounded=1;whiteSpace=wrap;html=1;" vertex="1" parent="1">
          <mxGeometry x="330" y="190" width="70" height="20" as="geometry" />
        </mxCell>
        <mxCell id="jYyRJb0wWEmul5kKWIG7-9" value="ProductName" style="rounded=1;whiteSpace=wrap;html=1;" vertex="1" parent="1">
          <mxGeometry x="320" y="160" width="90" height="20" as="geometry" />
        </mxCell>
        <mxCell id="jYyRJb0wWEmul5kKWIG7-4" value="product_id" style="rounded=1;whiteSpace=wrap;html=1;" vertex="1" parent="1">
          <mxGeometry x="185" y="180" width="70" height="20" as="geometry" />
        </mxCell>
        <mxCell id="jYyRJb0wWEmul5kKWIG7-13" value="Request Status" style="rounded=0;whiteSpace=wrap;html=1;" vertex="1" parent="1">
          <mxGeometry x="360" y="150" width="120" height="60" as="geometry" />
        </mxCell>
      </root>
    </mxGraphModel>
  </diagram>
</mxfile>
